<svg data-v-423bf9ae="" xmlns="http://www.w3.org/2000/svg" viewBox="0 0 342.23129698252336 188" class="iconAboveSlogan"><!----><!----><!----><g data-v-423bf9ae="" id="3fe862cd-e8ef-4012-83db-faae0cc9a4e5" fill="black" transform="matrix(3.5046727253949532,0,0,3.5046727253949532,-1.7523346769572186,84.98598599725435)"><path d="M5.15 7.91L5.15 7.91Q6.52 7.91 7.57 8.65L7.57 8.65L7.57 8.65Q8.62 9.39 9.19 10.59L9.19 10.59L9.19 10.59Q9.76 11.79 9.76 13.10L9.76 13.10L9.76 13.10Q9.76 14.46 9.23 15.65L9.23 15.65L9.23 15.65Q8.69 16.83 7.65 17.55L7.65 17.55L7.65 17.55Q6.61 18.27 5.15 18.27L5.15 18.27L5.15 18.27Q3.78 18.27 2.72 17.53L2.72 17.53L2.72 17.53Q1.65 16.79 1.08 15.60L1.08 15.60L1.08 15.60Q0.50 14.41 0.50 13.10L0.50 13.10L0.50 13.10Q0.50 11.75 1.05 10.56L1.05 10.56L1.05 10.56Q1.60 9.37 2.65 8.64L2.65 8.64L2.65 8.64Q3.70 7.91 5.15 7.91L5.15 7.91ZM4.63 8.69L4.63 8.69Q3.79 8.69 3.25 9.22L3.25 9.22L3.25 9.22Q2.72 9.74 2.48 10.54L2.48 10.54L2.48 10.54Q2.24 11.34 2.24 12.18L2.24 12.18L2.24 12.18Q2.24 13.40 2.60 14.61L2.60 14.61L2.60 14.61Q2.95 15.82 3.72 16.63L3.72 16.63L3.72 16.63Q4.48 17.44 5.64 17.44L5.64 17.44L5.64 17.44Q6.47 17.44 7.01 16.91L7.01 16.91L7.01 16.91Q7.55 16.37 7.78 15.56L7.78 15.56L7.78 15.56Q8.02 14.76 8.02 13.93L8.02 13.93L8.02 13.93Q8.02 12.75 7.67 11.54L7.67 11.54L7.67 11.54Q7.31 10.33 6.54 9.51L6.54 9.51L6.54 9.51Q5.78 8.69 4.63 8.69L4.63 8.69ZM16.24 10.96L16.24 10.96Q16.73 10.96 16.95 11.25L16.95 11.25L16.95 11.25Q17.18 11.54 17.23 11.92L17.23 11.92L17.23 11.92Q17.29 12.31 17.29 12.91L17.29 12.91L17.29 16.80L17.29 16.80Q17.29 16.97 17.39 17.12L17.39 17.12L17.39 17.12Q17.50 17.26 17.65 17.26L17.65 17.26L17.65 17.26Q17.86 17.26 18.02 17.13L18.02 17.13L18.02 17.13Q18.19 17.00 18.37 16.77L18.37 16.77L18.61 17.04L18.61 17.04Q18.35 17.53 17.91 17.86L17.91 17.86L17.91 17.86Q17.47 18.19 16.97 18.19L16.97 18.19L16.97 18.19Q16.30 18.19 15.96 17.80L15.96 17.80L15.96 17.80Q15.62 17.42 15.62 16.72L15.62 16.72L15.62 13.05L15.62 13.05Q15.62 12.85 15.58 12.71L15.58 12.71L15.58 12.71Q15.54 12.57 15.39 12.57L15.39 12.57L15.39 12.57Q14.91 12.57 14.42 13.59L14.42 13.59L14.42 13.59Q13.93 14.60 13.59 15.92L13.59 15.92L13.59 15.92Q13.26 17.23 13.26 17.91L13.26 17.91L11.62 18.27L11.62 12.39L11.62 12.39Q11.62 12.18 11.52 12.04L11.52 12.04L11.52 12.04Q11.42 11.90 11.24 11.90L11.24 11.90L11.24 11.90Q11.05 11.90 10.86 12.06L10.86 12.06L10.86 12.06Q10.67 12.22 10.54 12.43L10.54 12.43L10.29 12.15L10.29 12.15Q10.50 11.66 10.95 11.31L10.95 11.31L10.95 11.31Q11.40 10.96 11.91 10.96L11.91 10.96L11.91 10.96Q12.61 10.96 12.94 11.35L12.94 11.35L12.94 11.35Q13.26 11.73 13.26 12.42L13.26 12.42L13.26 15.12L13.31 15.12L13.31 15.12Q13.69 13.57 14.44 12.26L14.44 12.26L14.44 12.26Q15.19 10.96 16.24 10.96L16.24 10.96ZM21.62 5.14L21.62 16.80L21.62 16.80Q21.62 16.98 21.71 17.12L21.71 17.12L21.71 17.12Q21.80 17.26 21.99 17.26L21.99 17.26L21.99 17.26Q22.19 17.26 22.39 17.11L22.39 17.11L22.39 17.11Q22.60 16.95 22.72 16.77L22.72 16.77L22.97 17.04L22.97 17.04Q22.74 17.51 22.28 17.85L22.28 17.85L22.28 17.85Q21.83 18.19 21.31 18.19L21.31 18.19L21.31 18.19Q19.95 18.19 19.95 16.72L19.95 16.72L19.95 5.74L21.62 5.14ZM26.05 6.31L25.56 9.62L24.68 9.90L24.11 6.97L26.05 6.31ZM26.01 11.09L26.01 16.80L26.01 16.80Q26.01 17.01 26.11 17.14L26.11 17.14L26.11 17.14Q26.21 17.26 26.38 17.26L26.38 17.26L26.38 17.26Q26.73 17.26 27.09 16.77L27.09 16.77L27.34 17.04L27.34 17.04Q27.03 17.60 26.55 17.89L26.55 17.89L26.55 17.89Q26.07 18.19 25.59 18.19L25.59 18.19L25.59 18.19Q24.32 18.19 24.32 16.72L24.32 16.72L24.32 11.68L26.01 11.09ZM33.67 10.96L33.67 10.96Q34.16 10.96 34.38 11.25L34.38 11.25L34.38 11.25Q34.61 11.54 34.66 11.92L34.66 11.92L34.66 11.92Q34.72 12.31 34.72 12.91L34.72 12.91L34.72 16.80L34.72 16.80Q34.72 16.97 34.83 17.12L34.83 17.12L34.83 17.12Q34.93 17.26 35.08 17.26L35.08 17.26L35.08 17.26Q35.29 17.26 35.45 17.13L35.45 17.13L35.45 17.13Q35.62 17.00 35.80 16.77L35.80 16.77L36.04 17.04L36.04 17.04Q35.78 17.53 35.34 17.86L35.34 17.86L35.34 17.86Q34.90 18.19 34.40 18.19L34.40 18.19L34.40 18.19Q33.73 18.19 33.39 17.80L33.39 17.80L33.39 17.80Q33.05 17.42 33.05 16.72L33.05 16.72L33.05 13.05L33.05 13.05Q33.05 12.85 33.01 12.71L33.01 12.71L33.01 12.71Q32.97 12.57 32.82 12.57L32.82 12.57L32.82 12.57Q32.34 12.57 31.85 13.59L31.85 13.59L31.85 13.59Q31.36 14.60 31.02 15.92L31.02 15.92L31.02 15.92Q30.69 17.23 30.69 17.91L30.69 17.91L29.05 18.27L29.05 12.39L29.05 12.39Q29.05 12.18 28.95 12.04L28.95 12.04L28.95 12.04Q28.85 11.90 28.67 11.90L28.67 11.90L28.67 11.90Q28.48 11.90 28.29 12.06L28.29 12.06L28.29 12.06Q28.10 12.22 27.97 12.43L27.97 12.43L27.72 12.15L27.72 12.15Q27.93 11.66 28.38 11.31L28.38 11.31L28.38 11.31Q28.83 10.96 29.34 10.96L29.34 10.96L29.34 10.96Q30.04 10.96 30.37 11.35L30.37 11.35L30.37 11.35Q30.69 11.73 30.69 12.42L30.69 12.42L30.69 15.12L30.74 15.12L30.74 15.12Q31.12 13.57 31.87 12.26L31.87 12.26L31.87 12.26Q32.62 10.96 33.67 10.96L33.67 10.96ZM40.89 10.96L40.89 10.96Q41.71 10.96 42.25 11.38L42.25 11.38L42.25 11.38Q42.80 11.79 42.80 12.57L42.80 12.57L42.80 12.57Q42.80 13.20 42.12 13.98L42.12 13.98L42.12 13.98Q41.44 14.76 40.51 15.42L40.51 15.42L40.51 15.42Q39.58 16.09 38.92 16.38L38.92 16.38L38.92 16.38Q39.51 17.32 40.64 17.32L40.64 17.32L40.64 17.32Q41.27 17.32 41.91 16.96L41.91 16.96L41.91 16.96Q42.55 16.60 42.99 16.02L42.99 16.02L43.27 16.35L43.27 16.35Q42.55 17.26 41.74 17.76L41.74 17.76L41.74 17.76Q40.94 18.26 39.83 18.26L39.83 18.26L39.83 18.26Q38.93 18.26 38.23 17.85L38.23 17.85L38.23 17.85Q37.52 17.44 37.12 16.74L37.12 16.74L37.12 16.74Q36.72 16.03 36.72 15.15L36.72 15.15L36.72 15.15Q36.72 14.08 37.30 13.11L37.30 13.11L37.30 13.11Q37.88 12.14 38.85 11.55L38.85 11.55L38.85 11.55Q39.82 10.96 40.89 10.96L40.89 10.96ZM40.10 11.87L40.10 11.87Q39.56 11.87 39.14 12.26L39.14 12.26L39.14 12.26Q38.72 12.64 38.49 13.24L38.49 13.24L38.49 13.24Q38.25 13.85 38.25 14.49L38.25 14.49L38.25 14.49Q38.25 15.33 38.61 15.93L38.61 15.93L38.61 15.93Q39.13 15.64 39.71 15.11L39.71 15.11L39.71 15.11Q40.29 14.59 40.68 13.99L40.68 13.99L40.68 13.99Q41.08 13.38 41.08 12.89L41.08 12.89L41.08 12.89Q41.08 12.40 40.82 12.14L40.82 12.14L40.82 12.14Q40.56 11.87 40.10 11.87L40.10 11.87ZM52.75 7.90L52.75 7.90Q53.63 7.90 54.19 8.26L54.19 8.26L54.19 8.26Q54.75 8.62 54.75 9.23L54.75 9.23L54.75 9.23Q54.75 9.83 54.26 10.43L54.26 10.43L54.26 10.43Q53.76 11.03 52.97 11.44L52.97 11.44L52.97 11.44Q52.18 11.84 51.35 11.89L51.35 11.89L51.16 11.52L51.16 11.52Q51.88 11.34 52.39 10.80L52.39 10.80L52.39 10.80Q52.91 10.26 52.91 9.69L52.91 9.69L52.91 9.69Q52.91 9.24 52.63 8.97L52.63 8.97L52.63 8.97Q52.36 8.71 51.90 8.71L51.90 8.71L51.90 8.71Q51.09 8.71 50.43 9.33L50.43 9.33L50.43 9.33Q49.78 9.95 49.41 11.04L49.41 11.04L49.41 11.04Q49.04 12.12 49.04 13.48L49.04 13.48L49.04 13.48Q49.04 15.09 49.55 16.03L49.55 16.03L49.55 16.03Q50.06 16.97 51.00 16.97L51.00 16.97L51.00 16.97Q51.58 16.97 52.11 16.53L52.11 16.53L52.11 16.53Q52.64 16.09 52.98 15.37L52.98 15.37L52.98 15.37Q53.31 14.66 53.33 13.90L53.33 13.90L55.08 13.36L55.08 19.05L53.37 19.63L53.37 15.61L53.28 15.61L53.28 15.61Q52.93 16.83 52.09 17.52L52.09 17.52L52.09 17.52Q51.25 18.21 50.19 18.21L50.19 18.21L50.19 18.21Q49.28 18.21 48.59 17.75L48.59 17.75L48.59 17.75Q47.89 17.28 47.51 16.43L47.51 16.43L47.51 16.43Q47.12 15.58 47.12 14.49L47.12 14.49L47.12 14.49Q47.12 12.67 47.87 11.17L47.87 11.17L47.87 11.17Q48.62 9.66 49.91 8.78L49.91 8.78L49.91 8.78Q51.20 7.90 52.75 7.90L52.75 7.90ZM59.71 12.98L59.71 12.98Q59.12 13.64 58.69 14.62L58.69 14.62L58.69 14.62Q58.27 15.61 58.27 16.42L58.27 16.42L58.27 16.42Q58.27 17.21 58.69 17.72L58.69 17.72L58.69 17.72Q59.11 18.23 59.88 18.23L59.88 18.23L59.88 18.23Q60.49 18.23 61.06 17.92L61.06 17.92L61.06 17.92Q61.63 17.61 62.03 17.09L62.03 17.09L61.82 16.84L61.82 16.84Q61.35 17.15 60.93 17.15L60.93 17.15L60.93 17.15Q60.30 17.15 59.97 16.72L59.97 16.72L59.97 16.72Q59.64 16.28 59.64 15.64L59.64 15.64L59.64 15.64Q59.64 14.59 60.21 13.55L60.21 13.55L60.21 13.55Q60.79 12.52 61.60 11.76L61.60 11.76L61.35 11.49L61.35 11.49Q60.41 12.11 59.56 12.11L59.56 12.11L59.56 12.11Q59.01 12.11 58.57 11.68L58.57 11.68L58.57 11.68Q58.13 11.26 57.97 10.68L57.97 10.68L56.63 12.19L56.63 12.19Q56.69 12.39 56.91 12.59L56.91 12.59L56.91 12.59Q57.13 12.78 57.18 12.82L57.18 12.82L56.24 14.76L56.81 15.01L57.72 13.06L57.72 13.06Q58.09 13.20 58.52 13.20L58.52 13.20L58.52 13.20Q59.19 13.20 59.67 12.92L59.67 12.92L59.71 12.98ZM66.19 10.93L66.46 11.26L66.46 11.26Q65.53 11.91 65.01 12.75L65.01 12.75L65.01 12.75Q64.48 13.58 64.48 14.70L64.48 14.70L64.48 14.70Q64.48 15.32 64.72 15.95L64.72 15.95L64.72 15.95Q64.96 16.58 65.42 16.99L65.42 16.99L65.42 16.99Q65.88 17.40 66.53 17.40L66.53 17.40L66.53 17.40Q67.34 17.40 67.84 16.81L67.84 16.81L67.84 16.81Q68.33 16.23 68.33 15.36L68.33 15.36L68.33 15.36Q68.33 14.70 67.99 14.02L67.99 14.02L67.99 14.02Q67.65 13.34 67.07 12.87L67.07 12.87L67.07 12.87Q66.50 12.40 65.84 12.35L65.84 12.35L65.84 12.35Q66.14 12.03 66.48 11.76L66.48 11.76L66.48 11.76Q66.82 11.49 67.34 11.12L67.34 11.12L67.34 11.12Q68.35 11.45 68.94 12.36L68.94 12.36L68.94 12.36Q69.54 13.27 69.54 14.36L69.54 14.36L69.54 14.36Q69.54 15.33 69.11 16.24L69.11 16.24L69.11 16.24Q68.68 17.15 67.88 17.72L67.88 17.72L67.88 17.72Q67.07 18.28 66.01 18.28L66.01 18.28L66.01 18.28Q65.13 18.28 64.39 17.87L64.39 17.87L64.39 17.87Q63.66 17.46 63.22 16.74L63.22 16.74L63.22 16.74Q62.79 16.02 62.79 15.15L62.79 15.15L62.79 15.15Q62.79 13.65 63.73 12.52L63.73 12.52L63.73 12.52Q64.68 11.38 66.19 10.93L66.19 10.93ZM74.56 11.00L74.56 11.00Q75.21 11.00 75.76 11.34L75.76 11.34L75.76 11.34Q76.31 11.68 76.62 12.38L76.62 12.38L75.17 13.16L75.17 13.16Q75.03 12.57 74.66 12.24L74.66 12.24L74.66 12.24Q74.30 11.91 73.88 11.91L73.88 11.91L73.88 11.91Q73.32 11.91 72.88 12.26L72.88 12.26L72.88 12.26Q72.45 12.60 72.22 13.15L72.22 13.15L72.22 13.15Q71.99 13.69 71.99 14.29L71.99 14.29L71.99 14.29Q71.99 15.23 72.28 15.92L72.28 15.92L72.28 15.92Q72.58 16.60 73.09 16.96L73.09 16.96L73.09 16.96Q73.60 17.32 74.24 17.32L74.24 17.32L74.24 17.32Q75.53 17.32 76.72 15.85L76.72 15.85L77.04 16.13L77.04 16.13Q76.34 17.15 75.55 17.70L75.55 17.70L75.55 17.70Q74.76 18.26 73.67 18.26L73.67 18.26L73.67 18.26Q72.79 18.26 72.09 17.84L72.09 17.84L72.09 17.84Q71.39 17.43 70.99 16.68L70.99 16.68L70.99 16.68Q70.59 15.93 70.59 14.95L70.59 14.95L70.59 14.95Q70.59 13.87 71.06 12.97L71.06 12.97L71.06 12.97Q71.54 12.07 72.44 11.54L72.44 11.54L72.44 11.54Q73.35 11.00 74.56 11.00L74.56 11.00ZM82.04 10.96L82.04 10.96Q82.85 10.96 83.40 11.38L83.40 11.38L83.40 11.38Q83.94 11.79 83.94 12.57L83.94 12.57L83.94 12.57Q83.94 13.20 83.27 13.98L83.27 13.98L83.27 13.98Q82.59 14.76 81.66 15.42L81.66 15.42L81.66 15.42Q80.72 16.09 80.07 16.38L80.07 16.38L80.07 16.38Q80.65 17.32 81.79 17.32L81.79 17.32L81.79 17.32Q82.42 17.32 83.05 16.96L83.05 16.96L83.05 16.96Q83.69 16.60 84.14 16.02L84.14 16.02L84.42 16.35L84.42 16.35Q83.69 17.26 82.89 17.76L82.89 17.76L82.89 17.76Q82.08 18.26 80.98 18.26L80.98 18.26L80.98 18.26Q80.08 18.26 79.37 17.85L79.37 17.85L79.37 17.85Q78.67 17.44 78.27 16.74L78.27 16.74L78.27 16.74Q77.87 16.03 77.87 15.15L77.87 15.15L77.87 15.15Q77.87 14.08 78.45 13.11L78.45 13.11L78.45 13.11Q79.03 12.14 80.00 11.55L80.00 11.55L80.00 11.55Q80.96 10.96 82.04 10.96L82.04 10.96ZM81.24 11.87L81.24 11.87Q80.71 11.87 80.29 12.26L80.29 12.26L80.29 12.26Q79.87 12.64 79.63 13.24L79.63 13.24L79.63 13.24Q79.39 13.85 79.39 14.49L79.39 14.49L79.39 14.49Q79.39 15.33 79.76 15.93L79.76 15.93L79.76 15.93Q80.28 15.64 80.86 15.11L80.86 15.11L80.86 15.11Q81.44 14.59 81.83 13.99L81.83 13.99L81.83 13.99Q82.22 13.38 82.22 12.89L82.22 12.89L82.22 12.89Q82.22 12.40 81.96 12.14L81.96 12.14L81.96 12.14Q81.70 11.87 81.24 11.87L81.24 11.87ZM88.55 12.98L88.55 12.98Q87.96 13.64 87.53 14.62L87.53 14.62L87.53 14.62Q87.11 15.61 87.11 16.42L87.11 16.42L87.11 16.42Q87.11 17.21 87.53 17.72L87.53 17.72L87.53 17.72Q87.95 18.23 88.72 18.23L88.72 18.23L88.72 18.23Q89.33 18.23 89.90 17.92L89.90 17.92L89.90 17.92Q90.47 17.61 90.87 17.09L90.87 17.09L90.66 16.84L90.66 16.84Q90.19 17.15 89.77 17.15L89.77 17.15L89.77 17.15Q89.14 17.15 88.81 16.72L88.81 16.72L88.81 16.72Q88.48 16.28 88.48 15.64L88.48 15.64L88.48 15.64Q88.48 14.59 89.05 13.55L89.05 13.55L89.05 13.55Q89.63 12.52 90.44 11.76L90.44 11.76L90.19 11.49L90.19 11.49Q89.25 12.11 88.40 12.11L88.40 12.11L88.40 12.11Q87.85 12.11 87.41 11.68L87.41 11.68L87.41 11.68Q86.97 11.26 86.81 10.68L86.81 10.68L85.47 12.19L85.47 12.19Q85.53 12.39 85.75 12.59L85.75 12.59L85.75 12.59Q85.97 12.78 86.02 12.82L86.02 12.82L85.08 14.76L85.65 15.01L86.56 13.06L86.56 13.06Q86.93 13.20 87.36 13.20L87.36 13.20L87.36 13.20Q88.03 13.20 88.51 12.92L88.51 12.92L88.55 12.98ZM98.15 10.91L98.15 17.32L98.15 17.32Q98.15 18.58 97.57 19.73L97.57 19.73L97.57 19.73Q96.98 20.87 96.01 21.57L96.01 21.57L96.01 21.57Q95.05 22.26 94.00 22.26L94.00 22.26L94.00 22.26Q93.62 22.26 93.28 22.15L93.28 22.15L93.28 22.15Q92.95 22.04 92.58 21.78L92.58 21.78L93.62 20.48L93.62 20.48Q93.94 20.79 94.33 20.96L94.33 20.96L94.33 20.96Q94.72 21.14 95.03 21.14L95.03 21.14L95.03 21.14Q95.70 21.14 96.10 20.17L96.10 20.17L96.10 20.17Q96.49 19.19 96.49 17.50L96.49 17.50L96.49 17.50Q96.49 15.02 96.54 13.85L96.54 13.85L96.46 13.85L96.46 13.85Q95.48 18.26 93.65 18.26L93.65 18.26L93.65 18.26Q93.23 18.26 93.00 18.09L93.00 18.09L93.00 18.09Q92.76 17.92 92.67 17.51L92.67 17.51L92.67 17.51Q92.58 17.09 92.58 16.32L92.58 16.32L92.58 12.43L92.58 12.43Q92.58 12.19 92.48 12.06L92.48 12.06L92.48 12.06Q92.39 11.93 92.22 11.93L92.22 11.93L92.22 11.93Q92.05 11.93 91.86 12.05L91.86 12.05L91.86 12.05Q91.67 12.18 91.50 12.43L91.50 12.43L91.25 12.17L91.25 12.17Q91.57 11.51 91.94 11.24L91.94 11.24L91.94 11.24Q92.32 10.96 92.90 10.96L92.90 10.96L92.90 10.96Q93.55 10.96 93.90 11.35L93.90 11.35L93.90 11.35Q94.25 11.73 94.25 12.43L94.25 12.43L94.25 16.18L94.25 16.18Q94.25 16.42 94.32 16.55L94.32 16.55L94.32 16.55Q94.39 16.67 94.50 16.67L94.50 16.67L94.50 16.67Q94.84 16.67 95.29 15.79L95.29 15.79L95.29 15.79Q95.75 14.91 96.08 13.68L96.08 13.68L96.08 13.68Q96.40 12.45 96.40 11.49L96.40 11.49L98.15 10.91Z"></path></g><!----><g data-v-423bf9ae="" id="fa8d7f6a-35bd-45e1-a3fa-c78bc045462b" transform="matrix(1.1962835186097878,0,0,1.1962835186097878,109.27045595171748,-13.186598277511088)" stroke="none" fill="black"><path d="M70.611 34.62l-4.199-21.618h6.708l6.993 21.618h-9.502zm-23.561 0l1.389-21.618h6.446l1.327 21.618H47.05zm-23.527 0l6.919-21.618h6.751L32.911 34.62h-9.388zm-.566 30.901V39.557c.93 1.638 3.045 2.978 5.306 2.978 2.572 0 4.634-1.735 5.849-3.668 1.213 1.933 3.308 3.668 5.881 3.668 2.572 0 4.684-1.735 5.896-3.668 1.213 1.933 3.332 3.668 5.906 3.668 2.572 0 4.696-1.735 5.91-3.668 1.212 1.933 3.337 3.668 5.908 3.668 2.574 0 4.699-1.735 5.914-3.668 1.213 1.933 3.209 3.668 5.783 3.668 2.262 0 4.373-1.34 5.303-2.978v25.964H22.957zM94.25 34.62c.01 0 .02-.23-.02-.36-.061-.19-.181-.32-.32-.44l-9.73-21.9a1.12 1.12 0 0 0-1.069-.78H20.46c-.49 0-.92.33-1.07.8L9.8 33.74c-.22.15-.4.33-.48.6-.03.11-.01.28-.01.28h-.09l.09 1.25c.2 2.63 3.13 6.64 7.04 6.64.67 0 1.03-.1 1.96 2.69l.065 41.173c1.78 0 27.875-.043 27.875-.043v-9.95a5.875 5.875 0 1 1 11.75 0v9.95s24.105-.079 27.125-.079L85.27 45.2c.931-2.79 1.28-2.67 1.95-2.67 3.91 0 6.82-4.03 7.021-6.66l.109-1.25h-.1z"></path><path d="M29.5 46.5H43v12.75H29.5zM45.375 46.5h13.5v12.75h-13.5zM61.25 46.5h13.5v12.75h-13.5z"></path></g><!----><g data-v-423bf9ae="" id="bed298b4-f5ef-4ecc-9dc3-701d3aa8dda8" fill="black" transform="matrix(1.271604978824036,0,0,1.271604978824036,43.42696729868172,198.5943269325518)"><path d="M5.12 3.64L5.12 3.64Q6.43 3.64 7.38 4.22L7.38 4.22L7.38 4.22Q8.34 4.80 8.86 5.87L8.86 5.87L8.86 5.87Q9.38 6.94 9.38 8.40L9.38 8.40L9.38 8.40Q9.38 9.86 8.86 10.93L8.86 10.93L8.86 10.93Q8.34 12.00 7.38 12.58L7.38 12.58L7.38 12.58Q6.43 13.16 5.12 13.16L5.12 13.16L5.12 13.16Q3.82 13.16 2.86 12.58L2.86 12.58L2.86 12.58Q1.90 12.00 1.39 10.93L1.39 10.93L1.39 10.93Q0.87 9.86 0.87 8.40L0.87 8.40L0.87 8.40Q0.87 6.94 1.39 5.87L1.39 5.87L1.39 5.87Q1.90 4.80 2.86 4.22L2.86 4.22L2.86 4.22Q3.82 3.64 5.12 3.64L5.12 3.64ZM5.12 4.28L5.12 4.28Q4.05 4.28 3.25 4.78L3.25 4.78L3.25 4.78Q2.46 5.28 2.04 6.21L2.04 6.21L2.04 6.21Q1.61 7.14 1.61 8.40L1.61 8.40L1.61 8.40Q1.61 9.66 2.04 10.59L2.04 10.59L2.04 10.59Q2.46 11.52 3.25 12.02L3.25 12.02L3.25 12.02Q4.05 12.52 5.12 12.52L5.12 12.52L5.12 12.52Q6.20 12.52 7 12.02L7 12.02L7 12.02Q7.80 11.52 8.22 10.59L8.22 10.59L8.22 10.59Q8.65 9.66 8.65 8.40L8.65 8.40L8.65 8.40Q8.65 7.14 8.22 6.21L8.22 6.21L8.22 6.21Q7.80 5.28 7 4.78L7 4.78L7 4.78Q6.20 4.28 5.12 4.28L5.12 4.28ZM25.80 3.78L25.80 13.02L24.93 13.02L20.03 5.77L19.35 4.54L19.33 4.54L19.38 5.70L19.38 13.02L18.70 13.02L18.70 3.78L19.59 3.78L24.47 11.02L25.17 12.26L25.14 11.10L25.14 3.78L25.80 3.78ZM36.41 12.38L41.96 12.38L41.96 13.02L35.71 13.02L35.71 3.78L36.41 3.78L36.41 12.38ZM55.08 3.78L51.80 9.42L51.80 13.02L51.10 13.02L51.10 9.42L47.82 3.78L48.65 3.78L51.45 8.69L54.25 3.78L55.08 3.78ZM80.50 3.78L80.50 4.42L77.13 4.42L77.13 13.02L76.43 13.02L76.43 4.42L73.05 4.42L73.05 3.78L80.50 3.78ZM95.68 3.78L96.38 3.78L96.38 13.02L95.68 13.02L95.68 8.65L89.96 8.65L89.96 13.02L89.26 13.02L89.26 3.78L89.96 3.78L89.96 7.99L95.68 7.99L95.68 3.78ZM106.99 12.38L112.83 12.38L112.83 13.02L106.29 13.02L106.29 3.78L112.60 3.78L112.60 4.42L106.99 4.42L106.99 7.99L111.43 7.99L111.43 8.65L106.99 8.65L106.99 12.38ZM139.54 4.42L133.94 4.42L133.94 7.99L138.38 7.99L138.38 8.65L133.94 8.65L133.94 13.02L133.24 13.02L133.24 3.78L139.54 3.78L139.54 4.42ZM155.36 13.02L154.53 13.02L151.89 9.02L151.84 9.02L149.11 9.02L149.11 13.02L148.41 13.02L148.41 3.78L151.84 3.78L151.84 3.78Q153.23 3.78 154.05 4.48L154.05 4.48L154.05 4.48Q154.87 5.18 154.87 6.40L154.87 6.40L154.87 6.40Q154.87 7.41 154.28 8.07L154.28 8.07L154.28 8.07Q153.69 8.74 152.67 8.93L152.67 8.93L155.36 13.02ZM149.11 4.42L149.11 8.36L151.83 8.36L151.83 8.36Q152.95 8.36 153.54 7.85L153.54 7.85L153.54 7.85Q154.14 7.35 154.14 6.40L154.14 6.40L154.14 6.40Q154.14 5.45 153.54 4.93L153.54 4.93L153.54 4.93Q152.95 4.42 151.83 4.42L151.83 4.42L149.11 4.42ZM165.07 12.38L170.91 12.38L170.91 13.02L164.37 13.02L164.37 3.78L170.69 3.78L170.69 4.42L165.07 4.42L165.07 7.99L169.51 7.99L169.51 8.65L165.07 8.65L165.07 12.38ZM182.80 3.64L182.80 3.64Q185.40 3.64 186.28 5.68L186.28 5.68L185.68 6.17L185.68 6.17Q185.33 5.18 184.64 4.73L184.64 4.73L184.64 4.73Q183.95 4.28 182.81 4.28L182.81 4.28L182.81 4.28Q182 4.28 181.40 4.54L181.40 4.54L181.40 4.54Q180.80 4.79 180.48 5.22L180.48 5.22L180.48 5.22Q180.17 5.66 180.17 6.20L180.17 6.20L180.17 6.20Q180.17 6.73 180.43 7.08L180.43 7.08L180.43 7.08Q180.70 7.43 181.33 7.68L181.33 7.68L181.33 7.68Q181.97 7.92 183.09 8.12L183.09 8.12L183.09 8.12Q184.90 8.43 185.65 9.02L185.65 9.02L185.65 9.02Q186.41 9.60 186.41 10.64L186.41 10.64L186.41 10.64Q186.41 11.38 185.98 11.96L185.98 11.96L185.98 11.96Q185.54 12.53 184.75 12.84L184.75 12.84L184.75 12.84Q183.96 13.16 182.94 13.16L182.94 13.16L182.94 13.16Q181.48 13.16 180.48 12.58L180.48 12.58L180.48 12.58Q179.48 12.00 179.12 10.95L179.12 10.95L179.73 10.47L179.73 10.47Q180.01 11.47 180.86 11.99L180.86 11.99L180.86 11.99Q181.71 12.52 182.95 12.52L182.95 12.52L182.95 12.52Q184.16 12.52 184.92 12.03L184.92 12.03L184.92 12.03Q185.68 11.54 185.68 10.68L185.68 10.68L185.68 10.68Q185.68 9.94 185.06 9.51L185.06 9.51L185.06 9.51Q184.44 9.07 182.90 8.81L182.90 8.81L182.90 8.81Q181.59 8.58 180.84 8.26L180.84 8.26L180.84 8.26Q180.08 7.94 179.75 7.46L179.75 7.46L179.75 7.46Q179.42 6.99 179.42 6.27L179.42 6.27L179.42 6.27Q179.42 5.56 179.84 4.96L179.84 4.96L179.84 4.96Q180.25 4.35 181.01 4.00L181.01 4.00L181.01 4.00Q181.78 3.64 182.80 3.64L182.80 3.64ZM202.02 3.78L202.72 3.78L202.72 13.02L202.02 13.02L202.02 8.65L196.31 8.65L196.31 13.02L195.61 13.02L195.61 3.78L196.31 3.78L196.31 7.99L202.02 7.99L202.02 3.78Z"></path></g></svg>