<svg data-v-fde0c5aa="" xmlns="http://www.w3.org/2000/svg" viewBox="0 0 300 300" class="font"><!----><defs data-v-fde0c5aa=""><linearGradient data-v-fde0c5aa="" gradientTransform="rotate(25)" id="52e92fe1-ca9d-453e-a52f-e67398b844c2" x1="0%" y1="0%" x2="100%" y2="0%"><stop data-v-fde0c5aa="" offset="0%" stop-color="#E63500" stop-opacity="1"></stop><stop data-v-fde0c5aa="" offset="100%" stop-color="#FFC316" stop-opacity="1"></stop></linearGradient></defs><rect data-v-fde0c5aa="" fill="url(#52e92fe1-ca9d-453e-a52f-e67398b844c2)" x="0" y="0" width="300px" height="300px" class="logo-background-square"></rect><defs data-v-fde0c5aa=""><!----></defs><g data-v-fde0c5aa="" id="a8d86b94-9aaa-438c-8d26-1bae4d5f99a8" fill="#ffffff" transform="matrix(2.252944153223554,0,0,2.252944153223554,38.87352792338821,119.13466445626482)"><path d="M5.15 7.91L5.15 7.91Q6.52 7.91 7.57 8.65L7.57 8.65L7.57 8.65Q8.62 9.39 9.19 10.59L9.19 10.59L9.19 10.59Q9.76 11.79 9.76 13.10L9.76 13.10L9.76 13.10Q9.76 14.46 9.23 15.65L9.23 15.65L9.23 15.65Q8.69 16.83 7.65 17.55L7.65 17.55L7.65 17.55Q6.61 18.27 5.15 18.27L5.15 18.27L5.15 18.27Q3.78 18.27 2.72 17.53L2.72 17.53L2.72 17.53Q1.65 16.79 1.08 15.60L1.08 15.60L1.08 15.60Q0.50 14.41 0.50 13.10L0.50 13.10L0.50 13.10Q0.50 11.75 1.05 10.56L1.05 10.56L1.05 10.56Q1.60 9.37 2.65 8.64L2.65 8.64L2.65 8.64Q3.70 7.91 5.15 7.91L5.15 7.91ZM4.63 8.69L4.63 8.69Q3.79 8.69 3.25 9.22L3.25 9.22L3.25 9.22Q2.72 9.74 2.48 10.54L2.48 10.54L2.48 10.54Q2.24 11.34 2.24 12.18L2.24 12.18L2.24 12.18Q2.24 13.40 2.60 14.61L2.60 14.61L2.60 14.61Q2.95 15.82 3.72 16.63L3.72 16.63L3.72 16.63Q4.48 17.44 5.64 17.44L5.64 17.44L5.64 17.44Q6.47 17.44 7.01 16.91L7.01 16.91L7.01 16.91Q7.55 16.37 7.78 15.56L7.78 15.56L7.78 15.56Q8.02 14.76 8.02 13.93L8.02 13.93L8.02 13.93Q8.02 12.75 7.67 11.54L7.67 11.54L7.67 11.54Q7.31 10.33 6.54 9.51L6.54 9.51L6.54 9.51Q5.78 8.69 4.63 8.69L4.63 8.69ZM16.24 10.96L16.24 10.96Q16.73 10.96 16.95 11.25L16.95 11.25L16.95 11.25Q17.18 11.54 17.23 11.92L17.23 11.92L17.23 11.92Q17.29 12.31 17.29 12.91L17.29 12.91L17.29 16.80L17.29 16.80Q17.29 16.97 17.39 17.12L17.39 17.12L17.39 17.12Q17.50 17.26 17.65 17.26L17.65 17.26L17.65 17.26Q17.86 17.26 18.02 17.13L18.02 17.13L18.02 17.13Q18.19 17.00 18.37 16.77L18.37 16.77L18.61 17.04L18.61 17.04Q18.35 17.53 17.91 17.86L17.91 17.86L17.91 17.86Q17.47 18.19 16.97 18.19L16.97 18.19L16.97 18.19Q16.30 18.19 15.96 17.80L15.96 17.80L15.96 17.80Q15.62 17.42 15.62 16.72L15.62 16.72L15.62 13.05L15.62 13.05Q15.62 12.85 15.58 12.71L15.58 12.71L15.58 12.71Q15.54 12.57 15.39 12.57L15.39 12.57L15.39 12.57Q14.91 12.57 14.42 13.59L14.42 13.59L14.42 13.59Q13.93 14.60 13.59 15.92L13.59 15.92L13.59 15.92Q13.26 17.23 13.26 17.91L13.26 17.91L11.62 18.27L11.62 12.39L11.62 12.39Q11.62 12.18 11.52 12.04L11.52 12.04L11.52 12.04Q11.42 11.90 11.24 11.90L11.24 11.90L11.24 11.90Q11.05 11.90 10.86 12.06L10.86 12.06L10.86 12.06Q10.67 12.22 10.54 12.43L10.54 12.43L10.29 12.15L10.29 12.15Q10.50 11.66 10.95 11.31L10.95 11.31L10.95 11.31Q11.40 10.96 11.91 10.96L11.91 10.96L11.91 10.96Q12.61 10.96 12.94 11.35L12.94 11.35L12.94 11.35Q13.26 11.73 13.26 12.42L13.26 12.42L13.26 15.12L13.31 15.12L13.31 15.12Q13.69 13.57 14.44 12.26L14.44 12.26L14.44 12.26Q15.19 10.96 16.24 10.96L16.24 10.96ZM21.62 5.14L21.62 16.80L21.62 16.80Q21.62 16.98 21.71 17.12L21.71 17.12L21.71 17.12Q21.80 17.26 21.99 17.26L21.99 17.26L21.99 17.26Q22.19 17.26 22.39 17.11L22.39 17.11L22.39 17.11Q22.60 16.95 22.72 16.77L22.72 16.77L22.97 17.04L22.97 17.04Q22.74 17.51 22.28 17.85L22.28 17.85L22.28 17.85Q21.83 18.19 21.31 18.19L21.31 18.19L21.31 18.19Q19.95 18.19 19.95 16.72L19.95 16.72L19.95 5.74L21.62 5.14ZM26.05 6.31L25.56 9.62L24.68 9.90L24.11 6.97L26.05 6.31ZM26.01 11.09L26.01 16.80L26.01 16.80Q26.01 17.01 26.11 17.14L26.11 17.14L26.11 17.14Q26.21 17.26 26.38 17.26L26.38 17.26L26.38 17.26Q26.73 17.26 27.09 16.77L27.09 16.77L27.34 17.04L27.34 17.04Q27.03 17.60 26.55 17.89L26.55 17.89L26.55 17.89Q26.07 18.19 25.59 18.19L25.59 18.19L25.59 18.19Q24.32 18.19 24.32 16.72L24.32 16.72L24.32 11.68L26.01 11.09ZM33.67 10.96L33.67 10.96Q34.16 10.96 34.38 11.25L34.38 11.25L34.38 11.25Q34.61 11.54 34.66 11.92L34.66 11.92L34.66 11.92Q34.72 12.31 34.72 12.91L34.72 12.91L34.72 16.80L34.72 16.80Q34.72 16.97 34.83 17.12L34.83 17.12L34.83 17.12Q34.93 17.26 35.08 17.26L35.08 17.26L35.08 17.26Q35.29 17.26 35.45 17.13L35.45 17.13L35.45 17.13Q35.62 17.00 35.80 16.77L35.80 16.77L36.04 17.04L36.04 17.04Q35.78 17.53 35.34 17.86L35.34 17.86L35.34 17.86Q34.90 18.19 34.40 18.19L34.40 18.19L34.40 18.19Q33.73 18.19 33.39 17.80L33.39 17.80L33.39 17.80Q33.05 17.42 33.05 16.72L33.05 16.72L33.05 13.05L33.05 13.05Q33.05 12.85 33.01 12.71L33.01 12.71L33.01 12.71Q32.97 12.57 32.82 12.57L32.82 12.57L32.82 12.57Q32.34 12.57 31.85 13.59L31.85 13.59L31.85 13.59Q31.36 14.60 31.02 15.92L31.02 15.92L31.02 15.92Q30.69 17.23 30.69 17.91L30.69 17.91L29.05 18.27L29.05 12.39L29.05 12.39Q29.05 12.18 28.95 12.04L28.95 12.04L28.95 12.04Q28.85 11.90 28.67 11.90L28.67 11.90L28.67 11.90Q28.48 11.90 28.29 12.06L28.29 12.06L28.29 12.06Q28.10 12.22 27.97 12.43L27.97 12.43L27.72 12.15L27.72 12.15Q27.93 11.66 28.38 11.31L28.38 11.31L28.38 11.31Q28.83 10.96 29.34 10.96L29.34 10.96L29.34 10.96Q30.04 10.96 30.37 11.35L30.37 11.35L30.37 11.35Q30.69 11.73 30.69 12.42L30.69 12.42L30.69 15.12L30.74 15.12L30.74 15.12Q31.12 13.57 31.87 12.26L31.87 12.26L31.87 12.26Q32.62 10.96 33.67 10.96L33.67 10.96ZM40.89 10.96L40.89 10.96Q41.71 10.96 42.25 11.38L42.25 11.38L42.25 11.38Q42.80 11.79 42.80 12.57L42.80 12.57L42.80 12.57Q42.80 13.20 42.12 13.98L42.12 13.98L42.12 13.98Q41.44 14.76 40.51 15.42L40.51 15.42L40.51 15.42Q39.58 16.09 38.92 16.38L38.92 16.38L38.92 16.38Q39.51 17.32 40.64 17.32L40.64 17.32L40.64 17.32Q41.27 17.32 41.91 16.96L41.91 16.96L41.91 16.96Q42.55 16.60 42.99 16.02L42.99 16.02L43.27 16.35L43.27 16.35Q42.55 17.26 41.74 17.76L41.74 17.76L41.74 17.76Q40.94 18.26 39.83 18.26L39.83 18.26L39.83 18.26Q38.93 18.26 38.23 17.85L38.23 17.85L38.23 17.85Q37.52 17.44 37.12 16.74L37.12 16.74L37.12 16.74Q36.72 16.03 36.72 15.15L36.72 15.15L36.72 15.15Q36.72 14.08 37.30 13.11L37.30 13.11L37.30 13.11Q37.88 12.14 38.85 11.55L38.85 11.55L38.85 11.55Q39.82 10.96 40.89 10.96L40.89 10.96ZM40.10 11.87L40.10 11.87Q39.56 11.87 39.14 12.26L39.14 12.26L39.14 12.26Q38.72 12.64 38.49 13.24L38.49 13.24L38.49 13.24Q38.25 13.85 38.25 14.49L38.25 14.49L38.25 14.49Q38.25 15.33 38.61 15.93L38.61 15.93L38.61 15.93Q39.13 15.64 39.71 15.11L39.71 15.11L39.71 15.11Q40.29 14.59 40.68 13.99L40.68 13.99L40.68 13.99Q41.08 13.38 41.08 12.89L41.08 12.89L41.08 12.89Q41.08 12.40 40.82 12.14L40.82 12.14L40.82 12.14Q40.56 11.87 40.10 11.87L40.10 11.87ZM52.75 7.90L52.75 7.90Q53.63 7.90 54.19 8.26L54.19 8.26L54.19 8.26Q54.75 8.62 54.75 9.23L54.75 9.23L54.75 9.23Q54.75 9.83 54.26 10.43L54.26 10.43L54.26 10.43Q53.76 11.03 52.97 11.44L52.97 11.44L52.97 11.44Q52.18 11.84 51.35 11.89L51.35 11.89L51.16 11.52L51.16 11.52Q51.88 11.34 52.39 10.80L52.39 10.80L52.39 10.80Q52.91 10.26 52.91 9.69L52.91 9.69L52.91 9.69Q52.91 9.24 52.63 8.97L52.63 8.97L52.63 8.97Q52.36 8.71 51.90 8.71L51.90 8.71L51.90 8.71Q51.09 8.71 50.43 9.33L50.43 9.33L50.43 9.33Q49.78 9.95 49.41 11.04L49.41 11.04L49.41 11.04Q49.04 12.12 49.04 13.48L49.04 13.48L49.04 13.48Q49.04 15.09 49.55 16.03L49.55 16.03L49.55 16.03Q50.06 16.97 51.00 16.97L51.00 16.97L51.00 16.97Q51.58 16.97 52.11 16.53L52.11 16.53L52.11 16.53Q52.64 16.09 52.98 15.37L52.98 15.37L52.98 15.37Q53.31 14.66 53.33 13.90L53.33 13.90L55.08 13.36L55.08 19.05L53.37 19.63L53.37 15.61L53.28 15.61L53.28 15.61Q52.93 16.83 52.09 17.52L52.09 17.52L52.09 17.52Q51.25 18.21 50.19 18.21L50.19 18.21L50.19 18.21Q49.28 18.21 48.59 17.75L48.59 17.75L48.59 17.75Q47.89 17.28 47.51 16.43L47.51 16.43L47.51 16.43Q47.12 15.58 47.12 14.49L47.12 14.49L47.12 14.49Q47.12 12.67 47.87 11.17L47.87 11.17L47.87 11.17Q48.62 9.66 49.91 8.78L49.91 8.78L49.91 8.78Q51.20 7.90 52.75 7.90L52.75 7.90ZM59.71 12.98L59.71 12.98Q59.12 13.64 58.69 14.62L58.69 14.62L58.69 14.62Q58.27 15.61 58.27 16.42L58.27 16.42L58.27 16.42Q58.27 17.21 58.69 17.72L58.69 17.72L58.69 17.72Q59.11 18.23 59.88 18.23L59.88 18.23L59.88 18.23Q60.49 18.23 61.06 17.92L61.06 17.92L61.06 17.92Q61.63 17.61 62.03 17.09L62.03 17.09L61.82 16.84L61.82 16.84Q61.35 17.15 60.93 17.15L60.93 17.15L60.93 17.15Q60.30 17.15 59.97 16.72L59.97 16.72L59.97 16.72Q59.64 16.28 59.64 15.64L59.64 15.64L59.64 15.64Q59.64 14.59 60.21 13.55L60.21 13.55L60.21 13.55Q60.79 12.52 61.60 11.76L61.60 11.76L61.35 11.49L61.35 11.49Q60.41 12.11 59.56 12.11L59.56 12.11L59.56 12.11Q59.01 12.11 58.57 11.68L58.57 11.68L58.57 11.68Q58.13 11.26 57.97 10.68L57.97 10.68L56.63 12.19L56.63 12.19Q56.69 12.39 56.91 12.59L56.91 12.59L56.91 12.59Q57.13 12.78 57.18 12.82L57.18 12.82L56.24 14.76L56.81 15.01L57.72 13.06L57.72 13.06Q58.09 13.20 58.52 13.20L58.52 13.20L58.52 13.20Q59.19 13.20 59.67 12.92L59.67 12.92L59.71 12.98ZM66.19 10.93L66.46 11.26L66.46 11.26Q65.53 11.91 65.01 12.75L65.01 12.75L65.01 12.75Q64.48 13.58 64.48 14.70L64.48 14.70L64.48 14.70Q64.48 15.32 64.72 15.95L64.72 15.95L64.72 15.95Q64.96 16.58 65.42 16.99L65.42 16.99L65.42 16.99Q65.88 17.40 66.53 17.40L66.53 17.40L66.53 17.40Q67.34 17.40 67.84 16.81L67.84 16.81L67.84 16.81Q68.33 16.23 68.33 15.36L68.33 15.36L68.33 15.36Q68.33 14.70 67.99 14.02L67.99 14.02L67.99 14.02Q67.65 13.34 67.07 12.87L67.07 12.87L67.07 12.87Q66.50 12.40 65.84 12.35L65.84 12.35L65.84 12.35Q66.14 12.03 66.48 11.76L66.48 11.76L66.48 11.76Q66.82 11.49 67.34 11.12L67.34 11.12L67.34 11.12Q68.35 11.45 68.94 12.36L68.94 12.36L68.94 12.36Q69.54 13.27 69.54 14.36L69.54 14.36L69.54 14.36Q69.54 15.33 69.11 16.24L69.11 16.24L69.11 16.24Q68.68 17.15 67.88 17.72L67.88 17.72L67.88 17.72Q67.07 18.28 66.01 18.28L66.01 18.28L66.01 18.28Q65.13 18.28 64.39 17.87L64.39 17.87L64.39 17.87Q63.66 17.46 63.22 16.74L63.22 16.74L63.22 16.74Q62.79 16.02 62.79 15.15L62.79 15.15L62.79 15.15Q62.79 13.65 63.73 12.52L63.73 12.52L63.73 12.52Q64.68 11.38 66.19 10.93L66.19 10.93ZM74.56 11.00L74.56 11.00Q75.21 11.00 75.76 11.34L75.76 11.34L75.76 11.34Q76.31 11.68 76.62 12.38L76.62 12.38L75.17 13.16L75.17 13.16Q75.03 12.57 74.66 12.24L74.66 12.24L74.66 12.24Q74.30 11.91 73.88 11.91L73.88 11.91L73.88 11.91Q73.32 11.91 72.88 12.26L72.88 12.26L72.88 12.26Q72.45 12.60 72.22 13.15L72.22 13.15L72.22 13.15Q71.99 13.69 71.99 14.29L71.99 14.29L71.99 14.29Q71.99 15.23 72.28 15.92L72.28 15.92L72.28 15.92Q72.58 16.60 73.09 16.96L73.09 16.96L73.09 16.96Q73.60 17.32 74.24 17.32L74.24 17.32L74.24 17.32Q75.53 17.32 76.72 15.85L76.72 15.85L77.04 16.13L77.04 16.13Q76.34 17.15 75.55 17.70L75.55 17.70L75.55 17.70Q74.76 18.26 73.67 18.26L73.67 18.26L73.67 18.26Q72.79 18.26 72.09 17.84L72.09 17.84L72.09 17.84Q71.39 17.43 70.99 16.68L70.99 16.68L70.99 16.68Q70.59 15.93 70.59 14.95L70.59 14.95L70.59 14.95Q70.59 13.87 71.06 12.97L71.06 12.97L71.06 12.97Q71.54 12.07 72.44 11.54L72.44 11.54L72.44 11.54Q73.35 11.00 74.56 11.00L74.56 11.00ZM82.04 10.96L82.04 10.96Q82.85 10.96 83.40 11.38L83.40 11.38L83.40 11.38Q83.94 11.79 83.94 12.57L83.94 12.57L83.94 12.57Q83.94 13.20 83.27 13.98L83.27 13.98L83.27 13.98Q82.59 14.76 81.66 15.42L81.66 15.42L81.66 15.42Q80.72 16.09 80.07 16.38L80.07 16.38L80.07 16.38Q80.65 17.32 81.79 17.32L81.79 17.32L81.79 17.32Q82.42 17.32 83.05 16.96L83.05 16.96L83.05 16.96Q83.69 16.60 84.14 16.02L84.14 16.02L84.42 16.35L84.42 16.35Q83.69 17.26 82.89 17.76L82.89 17.76L82.89 17.76Q82.08 18.26 80.98 18.26L80.98 18.26L80.98 18.26Q80.08 18.26 79.37 17.85L79.37 17.85L79.37 17.85Q78.67 17.44 78.27 16.74L78.27 16.74L78.27 16.74Q77.87 16.03 77.87 15.15L77.87 15.15L77.87 15.15Q77.87 14.08 78.45 13.11L78.45 13.11L78.45 13.11Q79.03 12.14 80.00 11.55L80.00 11.55L80.00 11.55Q80.96 10.96 82.04 10.96L82.04 10.96ZM81.24 11.87L81.24 11.87Q80.71 11.87 80.29 12.26L80.29 12.26L80.29 12.26Q79.87 12.64 79.63 13.24L79.63 13.24L79.63 13.24Q79.39 13.85 79.39 14.49L79.39 14.49L79.39 14.49Q79.39 15.33 79.76 15.93L79.76 15.93L79.76 15.93Q80.28 15.64 80.86 15.11L80.86 15.11L80.86 15.11Q81.44 14.59 81.83 13.99L81.83 13.99L81.83 13.99Q82.22 13.38 82.22 12.89L82.22 12.89L82.22 12.89Q82.22 12.40 81.96 12.14L81.96 12.14L81.96 12.14Q81.70 11.87 81.24 11.87L81.24 11.87ZM88.55 12.98L88.55 12.98Q87.96 13.64 87.53 14.62L87.53 14.62L87.53 14.62Q87.11 15.61 87.11 16.42L87.11 16.42L87.11 16.42Q87.11 17.21 87.53 17.72L87.53 17.72L87.53 17.72Q87.95 18.23 88.72 18.23L88.72 18.23L88.72 18.23Q89.33 18.23 89.90 17.92L89.90 17.92L89.90 17.92Q90.47 17.61 90.87 17.09L90.87 17.09L90.66 16.84L90.66 16.84Q90.19 17.15 89.77 17.15L89.77 17.15L89.77 17.15Q89.14 17.15 88.81 16.72L88.81 16.72L88.81 16.72Q88.48 16.28 88.48 15.64L88.48 15.64L88.48 15.64Q88.48 14.59 89.05 13.55L89.05 13.55L89.05 13.55Q89.63 12.52 90.44 11.76L90.44 11.76L90.19 11.49L90.19 11.49Q89.25 12.11 88.40 12.11L88.40 12.11L88.40 12.11Q87.85 12.11 87.41 11.68L87.41 11.68L87.41 11.68Q86.97 11.26 86.81 10.68L86.81 10.68L85.47 12.19L85.47 12.19Q85.53 12.39 85.75 12.59L85.75 12.59L85.75 12.59Q85.97 12.78 86.02 12.82L86.02 12.82L85.08 14.76L85.65 15.01L86.56 13.06L86.56 13.06Q86.93 13.20 87.36 13.20L87.36 13.20L87.36 13.20Q88.03 13.20 88.51 12.92L88.51 12.92L88.55 12.98ZM98.15 10.91L98.15 17.32L98.15 17.32Q98.15 18.58 97.57 19.73L97.57 19.73L97.57 19.73Q96.98 20.87 96.01 21.57L96.01 21.57L96.01 21.57Q95.05 22.26 94.00 22.26L94.00 22.26L94.00 22.26Q93.62 22.26 93.28 22.15L93.28 22.15L93.28 22.15Q92.95 22.04 92.58 21.78L92.58 21.78L93.62 20.48L93.62 20.48Q93.94 20.79 94.33 20.96L94.33 20.96L94.33 20.96Q94.72 21.14 95.03 21.14L95.03 21.14L95.03 21.14Q95.70 21.14 96.10 20.17L96.10 20.17L96.10 20.17Q96.49 19.19 96.49 17.50L96.49 17.50L96.49 17.50Q96.49 15.02 96.54 13.85L96.54 13.85L96.46 13.85L96.46 13.85Q95.48 18.26 93.65 18.26L93.65 18.26L93.65 18.26Q93.23 18.26 93.00 18.09L93.00 18.09L93.00 18.09Q92.76 17.92 92.67 17.51L92.67 17.51L92.67 17.51Q92.58 17.09 92.58 16.32L92.58 16.32L92.58 12.43L92.58 12.43Q92.58 12.19 92.48 12.06L92.48 12.06L92.48 12.06Q92.39 11.93 92.22 11.93L92.22 11.93L92.22 11.93Q92.05 11.93 91.86 12.05L91.86 12.05L91.86 12.05Q91.67 12.18 91.50 12.43L91.50 12.43L91.25 12.17L91.25 12.17Q91.57 11.51 91.94 11.24L91.94 11.24L91.94 11.24Q92.32 10.96 92.90 10.96L92.90 10.96L92.90 10.96Q93.55 10.96 93.90 11.35L93.90 11.35L93.90 11.35Q94.25 11.73 94.25 12.43L94.25 12.43L94.25 16.18L94.25 16.18Q94.25 16.42 94.32 16.55L94.32 16.55L94.32 16.55Q94.39 16.67 94.50 16.67L94.50 16.67L94.50 16.67Q94.84 16.67 95.29 15.79L95.29 15.79L95.29 15.79Q95.75 14.91 96.08 13.68L96.08 13.68L96.08 13.68Q96.40 12.45 96.40 11.49L96.40 11.49L98.15 10.91Z"></path></g><!----><!----></svg>